<?xml version="1.0" encoding="UTF-8"?>
<svg xmlns="http://www.w3.org/2000/svg" xmlns:xlink="http://www.w3.org/1999/xlink" width="75pt" height="74.999997pt" viewBox="0 0 75 74.999997" version="1.2">
<defs>
<clipPath id="clip1">
  <path d="M 1.238281 7.5 L 73.988281 7.5 L 73.988281 57 L 1.238281 57 Z M 1.238281 7.5 "/>
</clipPath>
<clipPath id="clip2">
  <path d="M 16 42 L 47 42 L 47 67.5 L 16 67.5 Z M 16 42 "/>
</clipPath>
</defs>
<g id="surface1">
<g clip-path="url(#clip1)" clip-rule="nonzero">
<path style=" stroke:none;fill-rule:nonzero;fill:rgb(15.689087%,18.03894%,23.529053%);fill-opacity:1;" d="M 8.765625 56.761719 L 13.789062 56.761719 L 13.789062 53.691406 L 8.765625 53.691406 C 6.351562 53.691406 4.386719 51.742188 4.386719 49.339844 L 4.386719 14.917969 C 4.386719 12.519531 6.351562 10.566406 8.765625 10.566406 L 66.460938 10.566406 C 68.875 10.566406 70.835938 12.519531 70.835938 14.917969 L 70.835938 49.339844 C 70.835938 51.742188 68.875 53.691406 66.460938 53.691406 L 40.703125 53.691406 L 40.703125 56.761719 L 66.460938 56.761719 C 70.578125 56.761719 73.925781 53.433594 73.925781 49.339844 L 73.925781 14.917969 C 73.925781 10.824219 70.578125 7.496094 66.460938 7.496094 L 8.765625 7.496094 C 4.644531 7.496094 1.296875 10.824219 1.296875 14.917969 L 1.296875 49.339844 C 1.296875 53.433594 4.644531 56.761719 8.765625 56.761719 Z M 8.765625 56.761719 "/>
</g>
<path style=" stroke:none;fill-rule:nonzero;fill:rgb(15.689087%,18.03894%,23.529053%);fill-opacity:1;" d="M 34.007812 36.417969 C 34.007812 36.945312 33.953125 37.46875 33.851562 37.988281 C 33.746094 38.507812 33.59375 39.011719 33.386719 39.503906 C 33.183594 39.992188 32.933594 40.457031 32.640625 40.894531 C 32.34375 41.335938 32.007812 41.742188 31.628906 42.117188 C 31.253906 42.492188 30.84375 42.824219 30.398438 43.121094 C 29.957031 43.414062 29.488281 43.664062 28.996094 43.863281 C 28.503906 44.066406 28 44.21875 27.476562 44.324219 C 26.953125 44.425781 26.425781 44.480469 25.894531 44.480469 C 25.359375 44.480469 24.832031 44.425781 24.308594 44.324219 C 23.789062 44.21875 23.28125 44.066406 22.789062 43.863281 C 22.296875 43.664062 21.828125 43.414062 21.386719 43.121094 C 20.941406 42.824219 20.53125 42.492188 20.15625 42.117188 C 19.78125 41.742188 19.441406 41.335938 19.148438 40.894531 C 18.851562 40.457031 18.601562 39.992188 18.398438 39.503906 C 18.195312 39.011719 18.039062 38.507812 17.9375 37.988281 C 17.832031 37.46875 17.78125 36.945312 17.78125 36.417969 C 17.78125 35.886719 17.832031 35.363281 17.9375 34.84375 C 18.039062 34.324219 18.195312 33.820312 18.398438 33.332031 C 18.601562 32.84375 18.851562 32.378906 19.148438 31.9375 C 19.441406 31.496094 19.78125 31.089844 20.15625 30.714844 C 20.53125 30.34375 20.941406 30.007812 21.386719 29.714844 C 21.828125 29.417969 22.296875 29.171875 22.789062 28.96875 C 23.28125 28.765625 23.789062 28.613281 24.308594 28.511719 C 24.832031 28.40625 25.359375 28.355469 25.894531 28.355469 C 26.425781 28.355469 26.953125 28.40625 27.476562 28.511719 C 28 28.613281 28.503906 28.765625 28.996094 28.96875 C 29.488281 29.171875 29.957031 29.417969 30.398438 29.714844 C 30.84375 30.007812 31.253906 30.34375 31.628906 30.714844 C 32.007812 31.089844 32.34375 31.496094 32.640625 31.9375 C 32.933594 32.378906 33.183594 32.84375 33.386719 33.332031 C 33.59375 33.820312 33.746094 34.324219 33.851562 34.84375 C 33.953125 35.363281 34.007812 35.886719 34.007812 36.417969 Z M 34.007812 36.417969 "/>
<g clip-path="url(#clip2)" clip-rule="nonzero">
<path style=" stroke:none;fill-rule:nonzero;fill:rgb(15.689087%,18.03894%,23.529053%);fill-opacity:1;" d="M 16.621094 67.253906 L 35.164062 67.511719 L 35.164062 55.738281 C 35.164062 54.964844 35.039062 54.222656 34.855469 53.503906 L 45.125 47.296875 C 46.441406 46.464844 46.835938 44.71875 46 43.410156 C 45.164062 42.101562 43.40625 41.710938 42.089844 42.542969 L 31.835938 48.738281 C 30.222656 47.378906 28.164062 46.527344 25.894531 46.527344 C 20.792969 46.527344 16.621094 50.671875 16.621094 55.738281 Z M 16.621094 67.253906 "/>
</g>
</g>
</svg>
