<?xml version="1.0" encoding="UTF-8"?>
<svg xmlns="http://www.w3.org/2000/svg" xmlns:xlink="http://www.w3.org/1999/xlink" width="75pt" height="74.999997pt" viewBox="0 0 75 74.999997" version="1.2">
<defs>
<clipPath id="clip1">
  <path d="M 1.351562 1.648438 L 73.351562 1.648438 L 73.351562 54 L 1.351562 54 Z M 1.351562 1.648438 "/>
</clipPath>
<clipPath id="clip2">
  <path d="M 1.351562 11 L 73.351562 11 L 73.351562 73.648438 L 1.351562 73.648438 Z M 1.351562 11 "/>
</clipPath>
</defs>
<g id="surface1">
<path style=" stroke:none;fill-rule:nonzero;fill:rgb(15.689087%,18.03894%,23.529053%);fill-opacity:1;" d="M 41.003906 30.460938 C 41.003906 32.019531 39.996094 33.339844 38.609375 33.835938 L 38.609375 27.089844 C 39.996094 27.582031 41.003906 28.902344 41.003906 30.460938 Z M 33.816406 20.878906 C 33.816406 19.320312 34.820312 18 36.210938 17.503906 L 36.210938 24.253906 C 34.820312 23.757812 33.816406 22.4375 33.816406 20.878906 Z M 41.003906 20.878906 C 41.003906 21.539062 41.542969 22.074219 42.203125 22.074219 C 42.863281 22.074219 43.398438 21.539062 43.398438 20.878906 C 43.398438 17.984375 41.339844 15.566406 38.609375 15.007812 L 38.609375 13.691406 C 38.609375 13.03125 38.070312 12.492188 37.410156 12.492188 C 36.75 12.492188 36.210938 13.03125 36.210938 13.691406 L 36.210938 15.007812 C 33.480469 15.566406 31.417969 17.984375 31.417969 20.878906 C 31.417969 23.769531 33.480469 26.1875 36.210938 26.746094 L 36.210938 33.835938 C 34.820312 33.339844 33.816406 32.019531 33.816406 30.460938 C 33.816406 29.800781 33.277344 29.265625 32.617188 29.265625 C 31.957031 29.265625 31.417969 29.800781 31.417969 30.460938 C 31.417969 33.355469 33.480469 35.773438 36.210938 36.332031 L 36.210938 37.648438 C 36.210938 38.308594 36.75 38.847656 37.410156 38.847656 C 38.070312 38.847656 38.609375 38.308594 38.609375 37.648438 L 38.609375 36.332031 C 41.339844 35.773438 43.398438 33.355469 43.398438 30.460938 C 43.398438 27.570312 41.339844 25.152344 38.609375 24.59375 L 38.609375 17.503906 C 39.996094 18 41.003906 19.320312 41.003906 20.878906 "/>
<g clip-path="url(#clip1)" clip-rule="nonzero">
<path style=" stroke:none;fill-rule:nonzero;fill:rgb(15.689087%,18.03894%,23.529053%);fill-opacity:1;" d="M 56.515625 24.472656 C 56.246094 20.089844 54.5 16.109375 51.761719 13.011719 L 53.457031 11.316406 C 56.625 14.855469 58.636719 19.433594 58.914062 24.472656 Z M 38.609375 44.777344 C 42.988281 44.503906 46.96875 42.761719 50.070312 40.023438 L 51.761719 41.714844 C 48.226562 44.886719 43.652344 46.898438 38.609375 47.171875 Z M 36.210938 6.5625 C 31.832031 6.835938 27.847656 8.578125 24.75 11.316406 L 23.058594 9.625 C 26.59375 6.457031 31.171875 4.449219 36.210938 4.167969 Z M 50.070312 11.316406 C 46.96875 8.578125 42.988281 6.835938 38.609375 6.5625 L 38.609375 4.167969 C 43.648438 4.449219 48.226562 6.457031 51.761719 9.625 Z M 37.410156 42.441406 C 28.164062 42.441406 20.636719 34.917969 20.636719 25.671875 C 20.636719 16.421875 28.164062 8.898438 37.410156 8.898438 C 46.65625 8.898438 54.183594 16.421875 54.183594 25.671875 C 54.183594 34.917969 46.65625 42.441406 37.410156 42.441406 Z M 21.363281 11.316406 L 23.058594 13.011719 C 20.320312 16.109375 18.574219 20.089844 18.300781 24.472656 L 15.90625 24.472656 C 16.183594 19.433594 18.195312 14.855469 21.363281 11.316406 Z M 15.90625 26.867188 L 18.300781 26.867188 C 18.574219 31.25 20.320312 35.230469 23.058594 38.328125 L 21.363281 40.023438 C 18.195312 36.484375 16.183594 31.90625 15.90625 26.867188 Z M 23.058594 41.714844 L 24.75 40.023438 C 27.847656 42.761719 31.832031 44.503906 36.210938 44.777344 L 36.210938 47.171875 C 31.167969 46.898438 26.59375 44.886719 23.058594 41.714844 Z M 53.457031 40.023438 L 51.761719 38.328125 C 54.5 35.230469 56.246094 31.25 56.515625 26.867188 L 58.914062 26.867188 C 58.636719 31.90625 56.625 36.484375 53.457031 40.023438 Z M 72.152344 1.710938 L 67.359375 1.710938 C 66.699219 1.710938 66.160156 2.25 66.160156 2.90625 C 66.160156 3.566406 66.699219 4.105469 67.359375 4.105469 L 68.914062 4.105469 L 57.992188 13.464844 C 56.980469 11.761719 55.78125 10.183594 54.386719 8.785156 C 54.375 8.765625 54.367188 8.742188 54.351562 8.730469 C 54.335938 8.710938 54.308594 8.707031 54.292969 8.6875 C 49.957031 4.378906 43.988281 1.710938 37.410156 1.710938 C 30.832031 1.710938 24.863281 4.378906 20.527344 8.6875 C 20.511719 8.707031 20.484375 8.710938 20.46875 8.730469 C 20.449219 8.742188 20.445312 8.765625 20.433594 8.785156 C 16.117188 13.125 13.449219 19.089844 13.449219 25.671875 C 13.449219 32.253906 16.117188 38.222656 20.433594 42.554688 C 20.445312 42.574219 20.449219 42.597656 20.46875 42.609375 C 20.484375 42.628906 20.507812 42.632812 20.527344 42.648438 C 21.039062 43.15625 21.574219 43.648438 22.128906 44.113281 L 19.875 46.050781 L 16.25 42.347656 C 15.386719 41.492188 14.015625 41.417969 13.0625 42.175781 L 1.917969 51.089844 C 1.402344 51.507812 1.320312 52.261719 1.730469 52.773438 C 1.96875 53.070312 2.316406 53.222656 2.667969 53.222656 C 2.929688 53.222656 3.195312 53.140625 3.417969 52.960938 L 14.542969 44.039062 L 18.1875 47.742188 C 19.066406 48.605469 20.449219 48.664062 21.414062 47.871094 L 24.101562 45.578125 C 27.910156 48.136719 32.488281 49.628906 37.410156 49.628906 C 43.988281 49.628906 49.960938 46.960938 54.292969 42.648438 C 54.3125 42.632812 54.335938 42.628906 54.351562 42.609375 C 54.367188 42.597656 54.375 42.574219 54.386719 42.554688 C 58.703125 38.222656 61.371094 32.253906 61.371094 25.671875 C 61.371094 22.085938 60.554688 18.691406 59.136719 15.636719 L 70.953125 5.511719 L 70.953125 7.699219 C 70.953125 8.359375 71.492188 8.898438 72.152344 8.898438 C 72.8125 8.898438 73.351562 8.359375 73.351562 7.699219 L 73.351562 2.90625 C 73.351562 2.25 72.8125 1.710938 72.152344 1.710938 "/>
</g>
<g clip-path="url(#clip2)" clip-rule="nonzero">
<path style=" stroke:none;fill-rule:nonzero;fill:rgb(15.689087%,18.03894%,23.529053%);fill-opacity:1;" d="M 72.152344 71.195312 L 70.953125 71.195312 L 70.953125 12.492188 C 70.953125 11.832031 70.414062 11.292969 69.757812 11.292969 C 69.097656 11.292969 68.558594 11.832031 68.558594 12.492188 L 68.558594 71.195312 L 63.765625 71.195312 L 63.765625 38.847656 C 63.765625 38.1875 63.226562 37.648438 62.566406 37.648438 C 61.90625 37.648438 61.371094 38.1875 61.371094 38.847656 L 61.371094 71.195312 L 56.578125 71.195312 L 56.578125 46.035156 C 56.578125 45.375 56.039062 44.839844 55.378906 44.839844 C 54.71875 44.839844 54.183594 45.375 54.183594 46.035156 L 54.183594 71.195312 L 49.390625 71.195312 L 49.390625 50.828125 C 49.390625 50.167969 48.851562 49.628906 48.191406 49.628906 C 47.53125 49.628906 46.992188 50.167969 46.992188 50.828125 L 46.992188 71.195312 L 42.203125 71.195312 L 42.203125 53.222656 C 42.203125 52.5625 41.664062 52.027344 41.003906 52.027344 C 40.34375 52.027344 39.804688 52.5625 39.804688 53.222656 L 39.804688 71.195312 L 35.015625 71.195312 L 35.015625 53.222656 C 35.015625 52.5625 34.476562 52.027344 33.816406 52.027344 C 33.15625 52.027344 32.617188 52.5625 32.617188 53.222656 L 32.617188 71.195312 L 27.824219 71.195312 L 27.824219 50.828125 C 27.824219 50.167969 27.289062 49.628906 26.628906 49.628906 C 25.96875 49.628906 25.429688 50.167969 25.429688 50.828125 L 25.429688 71.195312 L 20.636719 71.195312 L 20.636719 53.222656 C 20.636719 52.5625 20.101562 52.027344 19.441406 52.027344 C 18.78125 52.027344 18.242188 52.5625 18.242188 53.222656 L 18.242188 71.195312 L 13.449219 71.195312 L 13.449219 52.027344 C 13.449219 51.367188 12.910156 50.828125 12.25 50.828125 C 11.59375 50.828125 11.054688 51.367188 11.054688 52.027344 L 11.054688 71.195312 L 6.261719 71.195312 L 6.261719 56.816406 C 6.261719 56.160156 5.722656 55.621094 5.0625 55.621094 C 4.402344 55.621094 3.867188 56.160156 3.867188 56.816406 L 3.867188 71.195312 L 2.667969 71.195312 C 2.007812 71.195312 1.46875 71.730469 1.46875 72.390625 C 1.46875 73.050781 2.007812 73.589844 2.667969 73.589844 L 72.152344 73.589844 C 72.8125 73.589844 73.351562 73.050781 73.351562 72.390625 C 73.351562 71.730469 72.8125 71.195312 72.152344 71.195312 "/>
</g>
</g>
</svg>
