<?xml version="1.0" encoding="UTF-8"?>
<svg xmlns="http://www.w3.org/2000/svg" xmlns:xlink="http://www.w3.org/1999/xlink" width="75pt" height="74.999997pt" viewBox="0 0 75 74.999997" version="1.2">
<defs>
<clipPath id="clip1">
  <path d="M 23 1.949219 L 52 1.949219 L 52 28 L 23 28 Z M 23 1.949219 "/>
</clipPath>
<clipPath id="clip2">
  <path d="M 2.25 50 L 73.5 50 L 73.5 73.199219 L 2.25 73.199219 Z M 2.25 50 "/>
</clipPath>
<clipPath id="clip3">
  <path d="M 2.25 40 L 73.5 40 L 73.5 49 L 2.25 49 Z M 2.25 40 "/>
</clipPath>
<clipPath id="clip4">
  <path d="M 2.25 29 L 73.5 29 L 73.5 39 L 2.25 39 Z M 2.25 29 "/>
</clipPath>
</defs>
<g id="surface1">
<path style=" stroke:none;fill-rule:nonzero;fill:rgb(15.689087%,18.03894%,23.529053%);fill-opacity:1;" d="M 39.878906 24.882812 C 39.878906 25.328125 40.210938 25.664062 40.65625 25.664062 C 40.824219 25.664062 40.9375 25.605469 41.046875 25.550781 C 41.882812 25.050781 42.605469 23.9375 42.828125 22.488281 L 43.664062 22.488281 C 44.054688 22.488281 44.386719 22.15625 44.386719 21.820312 C 44.386719 21.433594 44.054688 21.097656 43.664062 21.097656 L 42.828125 21.097656 C 42.660156 19.09375 41.546875 18.09375 39.933594 18.09375 C 36.203125 18.09375 37.152344 23.492188 35.203125 23.492188 C 34.589844 23.492188 34.035156 23.046875 34.035156 21.820312 C 34.035156 20.988281 34.367188 20.207031 34.8125 19.761719 C 35.035156 19.539062 35.148438 19.316406 35.148438 19.148438 C 35.148438 18.703125 34.8125 18.371094 34.367188 18.371094 C 34.199219 18.371094 34.035156 18.425781 33.867188 18.539062 C 33.144531 19.039062 32.699219 20.039062 32.53125 21.210938 L 31.695312 21.210938 C 31.304688 21.210938 30.972656 21.542969 30.972656 21.933594 C 30.972656 22.324219 31.304688 22.601562 31.695312 22.601562 L 32.53125 22.601562 C 32.753906 24.492188 33.867188 25.328125 35.203125 25.328125 C 38.765625 25.328125 37.761719 19.929688 39.933594 19.929688 C 40.878906 19.929688 41.324219 20.597656 41.324219 21.933594 C 41.324219 22.933594 40.824219 23.714844 40.210938 24.382812 C 40.046875 24.382812 39.878906 24.550781 39.878906 24.882812 Z M 39.878906 24.882812 "/>
<path style=" stroke:none;fill-rule:nonzero;fill:rgb(15.689087%,18.03894%,23.529053%);fill-opacity:1;" d="M 11.769531 17.035156 L 16.554688 27.5 L 15.722656 20.207031 L 13.273438 14.863281 L 14.996094 14.085938 L 14.71875 11.746094 L 11.324219 13.304688 C 10.765625 13.527344 10.488281 14.195312 10.765625 14.753906 Z M 11.769531 17.035156 "/>
<path style=" stroke:none;fill-rule:nonzero;fill:rgb(15.689087%,18.03894%,23.529053%);fill-opacity:1;" d="M 16.554688 8.460938 L 16.835938 10.800781 L 17.113281 13.136719 L 18.726562 26.941406 L 18.839844 27.609375 L 21.730469 27.609375 L 21.730469 5.34375 L 17.335938 5.847656 C 17.167969 5.847656 17.054688 5.902344 16.945312 5.957031 C 16.832031 6.011719 16.722656 6.125 16.609375 6.179688 C 16.386719 6.402344 16.277344 6.738281 16.332031 7.070312 Z M 16.554688 8.460938 "/>
<path style=" stroke:none;fill-rule:nonzero;fill:rgb(15.689087%,18.03894%,23.529053%);fill-opacity:1;" d="M 13.160156 27.554688 L 14.105469 27.554688 L 10.097656 18.703125 L 7.984375 20.820312 C 7.761719 21.042969 7.648438 21.320312 7.648438 21.597656 C 7.648438 21.878906 7.761719 22.15625 7.984375 22.378906 Z M 13.160156 27.554688 "/>
<path style=" stroke:none;fill-rule:nonzero;fill:rgb(15.689087%,18.03894%,23.529053%);fill-opacity:1;" d="M 59.195312 27.5 L 63.980469 17.035156 L 64.984375 14.808594 C 65.261719 14.25 64.984375 13.582031 64.425781 13.359375 L 61.03125 11.800781 L 60.753906 14.140625 L 62.476562 14.917969 L 60.027344 20.261719 Z M 59.195312 27.5 "/>
<path style=" stroke:none;fill-rule:nonzero;fill:rgb(15.689087%,18.03894%,23.529053%);fill-opacity:1;" d="M 62.589844 27.554688 L 67.765625 22.378906 C 67.988281 22.15625 68.101562 21.878906 68.101562 21.597656 C 68.101562 21.320312 67.988281 21.042969 67.765625 20.820312 L 65.652344 18.703125 L 61.644531 27.554688 Z M 62.589844 27.554688 "/>
<path style=" stroke:none;fill-rule:nonzero;fill:rgb(15.689087%,18.03894%,23.529053%);fill-opacity:1;" d="M 57.023438 26.886719 L 58.636719 13.136719 L 58.914062 10.800781 L 59.195312 8.460938 L 59.359375 7.070312 C 59.417969 6.738281 59.304688 6.457031 59.082031 6.179688 C 58.972656 6.070312 58.859375 6.011719 58.75 5.957031 C 58.636719 5.902344 58.472656 5.847656 58.359375 5.847656 L 54.015625 5.34375 L 54.015625 27.554688 L 56.96875 27.554688 Z M 57.023438 26.886719 "/>
<g clip-path="url(#clip1)" clip-rule="nonzero">
<path style=" stroke:none;fill-rule:nonzero;fill:rgb(15.689087%,18.03894%,23.529053%);fill-opacity:1;" d="M 26.183594 9.742188 L 49.5625 9.742188 L 49.5625 27.554688 L 51.789062 27.554688 L 51.789062 3.0625 C 51.789062 2.953125 51.789062 2.894531 51.789062 2.839844 C 51.679688 2.339844 51.234375 1.949219 50.675781 1.949219 L 25.070312 1.949219 C 24.515625 1.949219 24.070312 2.339844 23.957031 2.839844 C 23.957031 2.894531 23.957031 3.007812 23.957031 3.0625 L 23.957031 27.554688 L 26.183594 27.554688 Z M 26.183594 4.175781 L 49.5625 4.175781 L 49.5625 7.515625 L 26.183594 7.515625 Z M 26.183594 4.175781 "/>
</g>
<g clip-path="url(#clip2)" clip-rule="nonzero">
<path style=" stroke:none;fill-rule:nonzero;fill:rgb(15.689087%,18.03894%,23.529053%);fill-opacity:1;" d="M 2.25 68.746094 C 2.25 71.195312 4.253906 73.199219 6.703125 73.199219 L 69.046875 73.199219 C 71.496094 73.199219 73.5 71.195312 73.5 68.746094 L 73.5 50.378906 L 2.25 50.378906 Z M 59.582031 53.71875 C 63.589844 53.71875 66.820312 56.945312 66.820312 60.953125 C 66.820312 64.960938 63.589844 68.191406 59.582031 68.191406 C 55.574219 68.191406 52.347656 64.960938 52.347656 60.953125 C 52.347656 56.945312 55.574219 53.71875 59.582031 53.71875 Z M 30.082031 62.625 L 34.535156 62.625 C 35.148438 62.625 35.648438 63.125 35.648438 63.738281 C 35.648438 64.347656 35.148438 64.851562 34.535156 64.851562 L 30.082031 64.851562 C 29.46875 64.851562 28.96875 64.347656 28.96875 63.738281 C 28.96875 63.125 29.46875 62.625 30.082031 62.625 Z M 9.488281 57.058594 L 20.0625 57.058594 C 20.675781 57.058594 21.175781 57.558594 21.175781 58.171875 C 21.175781 58.78125 20.675781 59.285156 20.0625 59.285156 L 9.488281 59.285156 C 8.875 59.285156 8.375 58.78125 8.375 58.171875 C 8.375 57.558594 8.875 57.058594 9.488281 57.058594 Z M 9.488281 62.625 L 25.628906 62.625 C 26.242188 62.625 26.742188 63.125 26.742188 63.738281 C 26.742188 64.347656 26.242188 64.851562 25.628906 64.851562 L 9.488281 64.851562 C 8.875 64.851562 8.375 64.347656 8.375 63.738281 C 8.375 63.125 8.875 62.625 9.488281 62.625 Z M 9.488281 62.625 "/>
</g>
<g clip-path="url(#clip3)" clip-rule="nonzero">
<path style=" stroke:none;fill-rule:nonzero;fill:rgb(15.689087%,18.03894%,23.529053%);fill-opacity:1;" d="M 2.25 40.359375 L 73.5 40.359375 L 73.5 48.152344 L 2.25 48.152344 Z M 2.25 40.359375 "/>
</g>
<g clip-path="url(#clip4)" clip-rule="nonzero">
<path style=" stroke:none;fill-rule:nonzero;fill:rgb(15.689087%,18.03894%,23.529053%);fill-opacity:1;" d="M 69.046875 29.78125 L 6.703125 29.78125 C 4.253906 29.78125 2.25 31.785156 2.25 34.234375 L 2.25 38.132812 L 73.5 38.132812 L 73.5 34.234375 C 73.5 31.785156 71.496094 29.78125 69.046875 29.78125 Z M 69.046875 29.78125 "/>
</g>
</g>
</svg>
