<?xml version="1.0" encoding="UTF-8"?>
<svg xmlns="http://www.w3.org/2000/svg" xmlns:xlink="http://www.w3.org/1999/xlink" width="75pt" height="74.999997pt" viewBox="0 0 75 74.999997" version="1.2">
<defs>
<clipPath id="clip1">
  <path d="M 14 1.1875 L 61 1.1875 L 61 10 L 14 10 Z M 14 1.1875 "/>
</clipPath>
<clipPath id="clip2">
  <path d="M 6.5 26 L 13 26 L 13 36 L 6.5 36 Z M 6.5 26 "/>
</clipPath>
<clipPath id="clip3">
  <path d="M 14 65 L 61 65 L 61 73.9375 L 14 73.9375 Z M 14 65 "/>
</clipPath>
<clipPath id="clip4">
  <path d="M 62 26 L 68.75 26 L 68.75 36 L 62 36 Z M 62 26 "/>
</clipPath>
<clipPath id="clip5">
  <path d="M 7 11 L 68.75 11 L 68.75 25 L 7 25 Z M 7 11 "/>
</clipPath>
</defs>
<g id="surface1">
<path style=" stroke:none;fill-rule:nonzero;fill:rgb(0%,92.158508%,56.079102%);fill-opacity:1;" d="M 53.574219 34.707031 C 52.710938 35.984375 51.246094 36.828125 49.582031 36.828125 C 47.921875 36.828125 46.457031 35.984375 45.59375 34.707031 C 44.730469 35.984375 43.265625 36.828125 41.605469 36.828125 C 39.945312 36.828125 38.476562 35.984375 37.617188 34.707031 C 36.753906 35.984375 35.289062 36.828125 33.628906 36.828125 C 31.964844 36.828125 30.5 35.984375 29.636719 34.707031 C 28.777344 35.984375 27.308594 36.828125 25.648438 36.828125 C 23.988281 36.828125 22.523438 35.984375 21.660156 34.707031 C 20.796875 35.984375 19.332031 36.828125 17.671875 36.828125 C 16.632812 36.828125 15.675781 36.5 14.886719 35.941406 L 14.886719 64.023438 L 60.34375 64.023438 L 60.34375 35.941406 C 59.558594 36.5 58.597656 36.828125 57.5625 36.828125 C 55.902344 36.828125 54.433594 35.984375 53.574219 34.707031 Z M 53.574219 34.707031 "/>
<path style=" stroke:none;fill-rule:nonzero;fill:rgb(0%,92.158508%,56.079102%);fill-opacity:1;" d="M 17.671875 35.210938 C 19.421875 35.210938 20.847656 33.796875 20.847656 32.058594 L 20.847656 26.265625 L 14.492188 26.265625 L 14.492188 32.058594 C 14.492188 33.796875 15.917969 35.210938 17.671875 35.210938 Z M 17.671875 35.210938 "/>
<g clip-path="url(#clip1)" clip-rule="nonzero">
<path style=" stroke:none;fill-rule:nonzero;fill:rgb(0%,92.158508%,56.079102%);fill-opacity:1;" d="M 55.3125 1.183594 L 19.917969 1.183594 C 17.144531 1.183594 14.890625 3.4375 14.890625 6.203125 L 14.890625 9.488281 L 60.34375 9.488281 L 60.34375 6.203125 C 60.34375 3.4375 58.085938 1.183594 55.3125 1.183594 Z M 25.484375 6.351562 L 22.632812 6.351562 C 22.1875 6.351562 21.824219 5.992188 21.824219 5.542969 C 21.824219 5.097656 22.1875 4.734375 22.632812 4.734375 L 25.484375 4.734375 C 25.933594 4.734375 26.296875 5.097656 26.296875 5.542969 C 26.296875 5.992188 25.933594 6.351562 25.484375 6.351562 Z M 42.898438 6.351562 L 32.332031 6.351562 C 31.886719 6.351562 31.523438 5.992188 31.523438 5.542969 C 31.523438 5.097656 31.886719 4.734375 32.332031 4.734375 L 42.898438 4.734375 C 43.34375 4.734375 43.707031 5.097656 43.707031 5.542969 C 43.707031 5.992188 43.34375 6.351562 42.898438 6.351562 Z M 42.898438 6.351562 "/>
</g>
<path style=" stroke:none;fill-rule:nonzero;fill:rgb(0%,92.158508%,56.079102%);fill-opacity:1;" d="M 36.804688 32.058594 L 36.804688 26.265625 L 30.449219 26.265625 L 30.449219 32.058594 C 30.449219 33.796875 31.875 35.210938 33.628906 35.210938 C 35.378906 35.210938 36.804688 33.796875 36.804688 32.058594 Z M 36.804688 32.058594 "/>
<g clip-path="url(#clip2)" clip-rule="nonzero">
<path style=" stroke:none;fill-rule:nonzero;fill:rgb(0%,92.158508%,56.079102%);fill-opacity:1;" d="M 6.515625 32.058594 C 6.515625 33.796875 7.941406 35.210938 9.691406 35.210938 C 9.890625 35.210938 10.089844 35.195312 10.277344 35.15625 C 11.78125 34.878906 12.871094 33.574219 12.871094 32.058594 L 12.871094 26.265625 L 6.515625 26.265625 Z M 6.515625 32.058594 "/>
</g>
<g clip-path="url(#clip3)" clip-rule="nonzero">
<path style=" stroke:none;fill-rule:nonzero;fill:rgb(0%,92.158508%,56.079102%);fill-opacity:1;" d="M 14.886719 65.640625 L 14.886719 68.925781 C 14.886719 71.691406 17.144531 73.941406 19.917969 73.941406 L 55.3125 73.941406 C 58.085938 73.941406 60.34375 71.691406 60.34375 68.925781 L 60.34375 65.640625 Z M 42.898438 70.394531 L 32.332031 70.394531 C 31.886719 70.394531 31.523438 70.03125 31.523438 69.585938 C 31.523438 69.136719 31.886719 68.777344 32.332031 68.777344 L 42.898438 68.777344 C 43.34375 68.777344 43.707031 69.136719 43.707031 69.585938 C 43.707031 70.03125 43.34375 70.394531 42.898438 70.394531 Z M 42.898438 70.394531 "/>
</g>
<path style=" stroke:none;fill-rule:nonzero;fill:rgb(0%,92.158508%,56.079102%);fill-opacity:1;" d="M 28.828125 32.058594 L 28.828125 26.265625 L 22.472656 26.265625 L 22.472656 32.058594 C 22.472656 33.796875 23.894531 35.210938 25.648438 35.210938 C 27.402344 35.210938 28.828125 33.796875 28.828125 32.058594 Z M 28.828125 32.058594 "/>
<g clip-path="url(#clip4)" clip-rule="nonzero">
<path style=" stroke:none;fill-rule:nonzero;fill:rgb(0%,92.158508%,56.079102%);fill-opacity:1;" d="M 62.359375 32.058594 C 62.359375 33.796875 63.785156 35.210938 65.539062 35.210938 C 67.292969 35.210938 68.71875 33.796875 68.71875 32.058594 L 68.71875 26.265625 L 62.359375 26.265625 Z M 62.359375 32.058594 "/>
</g>
<g clip-path="url(#clip5)" clip-rule="nonzero">
<path style=" stroke:none;fill-rule:nonzero;fill:rgb(0%,92.158508%,56.079102%);fill-opacity:1;" d="M 60.675781 11.105469 L 14.554688 11.105469 L 7.078125 24.648438 L 68.15625 24.648438 Z M 60.675781 11.105469 "/>
</g>
<path style=" stroke:none;fill-rule:nonzero;fill:rgb(0%,92.158508%,56.079102%);fill-opacity:1;" d="M 41.605469 35.210938 C 43.359375 35.210938 44.785156 33.796875 44.785156 32.058594 L 44.785156 26.265625 L 38.425781 26.265625 L 38.425781 32.054688 C 38.425781 32.058594 38.425781 32.058594 38.425781 32.058594 C 38.425781 33.796875 39.851562 35.210938 41.605469 35.210938 Z M 41.605469 35.210938 "/>
<path style=" stroke:none;fill-rule:nonzero;fill:rgb(0%,92.158508%,56.079102%);fill-opacity:1;" d="M 52.761719 32.058594 L 52.761719 26.265625 L 46.40625 26.265625 L 46.40625 32.058594 C 46.40625 33.796875 47.832031 35.210938 49.582031 35.210938 C 51.335938 35.210938 52.761719 33.796875 52.761719 32.058594 Z M 52.761719 32.058594 "/>
<path style=" stroke:none;fill-rule:nonzero;fill:rgb(0%,92.158508%,56.079102%);fill-opacity:1;" d="M 54.382812 32.058594 C 54.382812 33.796875 55.808594 35.210938 57.5625 35.210938 C 59.3125 35.210938 60.738281 33.796875 60.738281 32.058594 L 60.738281 26.265625 L 54.382812 26.265625 Z M 54.382812 32.058594 "/>
</g>
</svg>
