<?xml version="1.0" encoding="UTF-8"?>
<svg xmlns="http://www.w3.org/2000/svg" xmlns:xlink="http://www.w3.org/1999/xlink" width="75pt" height="74.999997pt" viewBox="0 0 75 74.999997" version="1.2">
<defs>
<clipPath id="clip1">
  <path d="M 10.617188 32 L 41 32 L 41 63 L 10.617188 63 Z M 10.617188 32 "/>
</clipPath>
<clipPath id="clip2">
  <path d="M 14 1.234375 L 64.617188 1.234375 L 64.617188 73.984375 L 14 73.984375 Z M 14 1.234375 "/>
</clipPath>
</defs>
<g id="surface1">
<g clip-path="url(#clip1)" clip-rule="nonzero">
<path style=" stroke:none;fill-rule:nonzero;fill:rgb(15.689087%,18.03894%,23.529053%);fill-opacity:1;" d="M 15.273438 46.753906 L 21.921875 53.390625 L 34.847656 40.484375 L 36.621094 42.257812 L 22.808594 56.050781 C 22.5625 56.296875 22.246094 56.417969 21.921875 56.417969 C 21.597656 56.417969 21.277344 56.296875 21.03125 56.050781 L 13.5 48.527344 Z M 25.6875 62.6875 C 34 62.6875 40.757812 55.9375 40.757812 47.640625 C 40.757812 39.34375 34 32.59375 25.6875 32.59375 C 21.144531 32.59375 17.078125 34.617188 14.3125 37.804688 C 14.101562 38.046875 13.902344 38.300781 13.703125 38.554688 C 13.621094 38.664062 13.539062 38.777344 13.457031 38.886719 C 13.277344 39.136719 13.105469 39.394531 12.9375 39.652344 C 12.855469 39.785156 12.773438 39.921875 12.695312 40.0625 C 12.546875 40.308594 12.402344 40.5625 12.273438 40.824219 C 12.1875 40.984375 12.109375 41.15625 12.03125 41.324219 C 11.917969 41.566406 11.804688 41.8125 11.703125 42.0625 C 11.625 42.261719 11.554688 42.464844 11.480469 42.667969 C 11.398438 42.898438 11.316406 43.136719 11.246094 43.371094 C 11.171875 43.609375 11.113281 43.855469 11.054688 44.105469 C 11.007812 44.316406 10.949219 44.527344 10.90625 44.742188 C 10.847656 45.035156 10.804688 45.339844 10.765625 45.644531 C 10.746094 45.820312 10.710938 45.992188 10.691406 46.167969 C 10.644531 46.652344 10.617188 47.140625 10.617188 47.640625 C 10.617188 48.140625 10.644531 48.632812 10.691406 49.117188 C 10.710938 49.292969 10.746094 49.464844 10.765625 49.640625 C 10.804688 49.945312 10.847656 50.246094 10.90625 50.542969 C 10.949219 50.757812 11.007812 50.96875 11.054688 51.183594 C 11.113281 51.429688 11.171875 51.671875 11.246094 51.914062 C 11.316406 52.148438 11.398438 52.382812 11.480469 52.613281 C 11.554688 52.820312 11.625 53.019531 11.703125 53.21875 C 11.804688 53.46875 11.917969 53.714844 12.03125 53.960938 C 12.109375 54.125 12.1875 54.296875 12.273438 54.460938 C 12.402344 54.71875 12.546875 54.972656 12.695312 55.21875 C 12.773438 55.359375 12.855469 55.5 12.9375 55.628906 C 13.105469 55.890625 13.277344 56.144531 13.457031 56.394531 C 13.539062 56.507812 13.621094 56.621094 13.703125 56.726562 C 13.902344 56.980469 14.101562 57.238281 14.3125 57.476562 C 17.078125 60.664062 21.144531 62.6875 25.6875 62.6875 "/>
</g>
<g clip-path="url(#clip2)" clip-rule="nonzero">
<path style=" stroke:none;fill-rule:nonzero;fill:rgb(15.689087%,18.03894%,23.529053%);fill-opacity:1;" d="M 60.851562 15.039062 L 52.058594 15.039062 C 51.367188 15.039062 50.804688 14.476562 50.804688 13.785156 L 50.804688 5.007812 L 53.316406 5.007812 L 53.316406 12.53125 L 60.851562 12.53125 Z M 54.570312 1.246094 L 14.386719 1.246094 L 14.386719 34.214844 C 17.441406 31.644531 21.386719 30.085938 25.6875 30.085938 C 35.382812 30.085938 43.269531 37.960938 43.269531 47.640625 C 43.269531 57.320312 35.382812 65.195312 25.6875 65.195312 C 21.386719 65.195312 17.441406 63.640625 14.386719 61.066406 L 14.386719 73.972656 L 64.617188 73.972656 L 64.617188 11.277344 L 54.570312 1.246094 "/>
</g>
</g>
</svg>
