<?xml version="1.0" encoding="UTF-8"?>
<svg xmlns="http://www.w3.org/2000/svg" xmlns:xlink="http://www.w3.org/1999/xlink" width="75pt" height="74.999997pt" viewBox="0 0 75 74.999997" version="1.2">
<defs>
<clipPath id="clip1">
  <path d="M 25 1.1875 L 37 1.1875 L 37 13 L 25 13 Z M 25 1.1875 "/>
</clipPath>
<clipPath id="clip2">
  <path d="M 3.5 28 L 71.75 28 L 71.75 73.9375 L 3.5 73.9375 Z M 3.5 28 "/>
</clipPath>
</defs>
<g id="surface1">
<g clip-path="url(#clip1)" clip-rule="nonzero">
<path style=" stroke:none;fill-rule:nonzero;fill:rgb(15.689087%,18.03894%,23.529053%);fill-opacity:1;" d="M 36.832031 6.695312 C 36.832031 7.054688 36.796875 7.414062 36.726562 7.765625 C 36.65625 8.117188 36.550781 8.457031 36.414062 8.789062 C 36.277344 9.121094 36.109375 9.4375 35.90625 9.734375 C 35.707031 10.035156 35.480469 10.3125 35.226562 10.566406 C 34.972656 10.820312 34.695312 11.046875 34.394531 11.246094 C 34.097656 11.445312 33.78125 11.613281 33.449219 11.75 C 33.117188 11.886719 32.773438 11.992188 32.421875 12.0625 C 32.066406 12.132812 31.710938 12.167969 31.351562 12.167969 C 30.992188 12.167969 30.632812 12.132812 30.28125 12.0625 C 29.929688 11.992188 29.585938 11.886719 29.253906 11.75 C 28.921875 11.613281 28.605469 11.445312 28.304688 11.246094 C 28.007812 11.046875 27.730469 10.820312 27.476562 10.566406 C 27.222656 10.3125 26.992188 10.035156 26.792969 9.734375 C 26.59375 9.4375 26.425781 9.121094 26.285156 8.789062 C 26.148438 8.457031 26.046875 8.117188 25.976562 7.765625 C 25.90625 7.414062 25.871094 7.054688 25.871094 6.695312 C 25.871094 6.339844 25.90625 5.980469 25.976562 5.628906 C 26.046875 5.277344 26.148438 4.9375 26.285156 4.605469 C 26.425781 4.273438 26.59375 3.957031 26.792969 3.660156 C 26.992188 3.359375 27.222656 3.082031 27.476562 2.828125 C 27.730469 2.574219 28.007812 2.347656 28.304688 2.148438 C 28.605469 1.949219 28.921875 1.78125 29.253906 1.644531 C 29.585938 1.507812 29.929688 1.402344 30.28125 1.332031 C 30.632812 1.261719 30.992188 1.226562 31.351562 1.226562 C 31.710938 1.226562 32.066406 1.261719 32.421875 1.332031 C 32.773438 1.402344 33.117188 1.507812 33.449219 1.644531 C 33.78125 1.78125 34.097656 1.949219 34.394531 2.148438 C 34.695312 2.347656 34.972656 2.574219 35.226562 2.828125 C 35.480469 3.082031 35.707031 3.359375 35.90625 3.660156 C 36.109375 3.957031 36.277344 4.273438 36.414062 4.605469 C 36.550781 4.9375 36.65625 5.277344 36.726562 5.628906 C 36.796875 5.980469 36.832031 6.339844 36.832031 6.695312 Z M 36.832031 6.695312 "/>
</g>
<path style=" stroke:none;fill-rule:nonzero;fill:rgb(15.689087%,18.03894%,23.529053%);fill-opacity:1;" d="M 35.007812 24.398438 C 35.269531 24.730469 35.625 24.976562 36.027344 25.105469 L 44.050781 27.636719 C 44.261719 27.703125 44.472656 27.734375 44.683594 27.734375 C 45.570312 27.734375 46.394531 27.164062 46.679688 26.273438 C 47.027344 25.175781 46.417969 24 45.3125 23.652344 L 37.90625 21.316406 C 37.160156 20.363281 36.414062 19.410156 35.667969 18.457031 C 34.492188 16.953125 33.382812 15.1875 31.953125 13.917969 C 30.976562 13.054688 29.890625 12.589844 28.5625 12.75 C 27.941406 12.824219 26.855469 12.949219 26.390625 13.410156 L 17.550781 20.027344 C 17.136719 20.335938 16.855469 20.785156 16.753906 21.289062 L 14.863281 30.730469 C 14.636719 31.863281 15.371094 32.960938 16.503906 33.191406 C 16.644531 33.21875 16.78125 33.230469 16.917969 33.230469 C 17.894531 33.230469 18.769531 32.542969 18.96875 31.550781 L 20.703125 22.890625 L 24.78125 19.839844 L 24.363281 32.53125 C 24.332031 33.398438 24.574219 34.214844 25.007812 34.902344 C 22.914062 43.679688 20.160156 55.0625 19.703125 56.523438 C 19.191406 57.746094 19.617188 59.199219 20.773438 59.9375 C 21.242188 60.234375 21.761719 60.378906 22.277344 60.378906 C 23.195312 60.378906 24.097656 59.925781 24.628906 59.09375 C 25.273438 58.097656 25.441406 56.644531 25.734375 55.527344 C 26.335938 53.199219 26.90625 50.859375 27.476562 48.519531 C 27.941406 46.617188 28.402344 44.710938 28.859375 42.804688 C 29.132812 41.65625 29.410156 40.507812 29.683594 39.359375 C 29.839844 38.710938 30.042969 36.007812 30.972656 36.367188 C 32.867188 37.105469 34.769531 37.824219 36.671875 38.554688 L 36.019531 46.460938 C 35.890625 47.992188 37.035156 49.339844 38.570312 49.464844 C 38.648438 49.472656 38.726562 49.472656 38.800781 49.472656 C 40.238281 49.472656 41.460938 48.371094 41.582031 46.917969 L 42.40625 36.929688 C 42.507812 35.695312 41.78125 34.542969 40.625 34.097656 L 32.785156 31.097656 L 33.089844 21.945312 Z M 35.007812 24.398438 "/>
<g clip-path="url(#clip2)" clip-rule="nonzero">
<path style=" stroke:none;fill-rule:nonzero;fill:rgb(15.689087%,18.03894%,23.529053%);fill-opacity:1;" d="M 70.527344 28.574219 L 58.417969 28.574219 C 57.746094 28.574219 57.203125 29.117188 57.203125 29.785156 L 57.203125 39.296875 L 45.417969 39.296875 C 44.75 39.296875 44.207031 39.839844 44.207031 40.507812 L 44.207031 50.023438 L 32.421875 50.023438 C 31.75 50.023438 31.207031 50.566406 31.207031 51.234375 L 31.207031 60.746094 L 19.421875 60.746094 C 18.753906 60.746094 18.207031 61.289062 18.207031 61.957031 L 18.207031 71.472656 L 4.714844 71.472656 C 4.042969 71.472656 3.5 72.015625 3.5 72.683594 C 3.5 73.351562 4.042969 73.894531 4.714844 73.894531 L 19.421875 73.894531 C 20.09375 73.894531 20.636719 73.351562 20.636719 72.683594 L 20.636719 63.167969 L 32.421875 63.167969 C 33.089844 63.167969 33.632812 62.628906 33.632812 61.957031 L 33.632812 52.445312 L 45.417969 52.445312 C 46.089844 52.445312 46.632812 51.902344 46.632812 51.234375 L 46.632812 41.71875 L 58.417969 41.71875 C 59.085938 41.71875 59.628906 41.179688 59.628906 40.507812 L 59.628906 30.996094 L 70.527344 30.996094 C 71.195312 30.996094 71.742188 30.453125 71.742188 29.785156 C 71.742188 29.117188 71.195312 28.574219 70.527344 28.574219 Z M 70.527344 28.574219 "/>
</g>
<path style=" stroke:none;fill-rule:nonzero;fill:rgb(15.689087%,18.03894%,23.529053%);fill-opacity:1;" d="M 40.929688 64.160156 C 41.167969 64.457031 41.519531 64.613281 41.875 64.613281 C 42.144531 64.613281 42.410156 64.527344 42.632812 64.347656 L 55.164062 54.335938 L 55.042969 55.449219 C 54.96875 56.113281 55.449219 56.710938 56.113281 56.785156 C 56.160156 56.789062 56.203125 56.792969 56.25 56.792969 C 56.859375 56.792969 57.386719 56.332031 57.453125 55.714844 L 57.902344 51.695312 C 57.902344 51.667969 57.898438 51.644531 57.902344 51.617188 C 57.902344 51.5625 57.90625 51.511719 57.902344 51.457031 C 57.898438 51.414062 57.886719 51.375 57.878906 51.332031 C 57.875 51.296875 57.871094 51.257812 57.859375 51.222656 C 57.847656 51.179688 57.828125 51.136719 57.808594 51.09375 C 57.796875 51.0625 57.785156 51.035156 57.773438 51.003906 C 57.699219 50.863281 57.597656 50.738281 57.476562 50.632812 C 57.445312 50.609375 57.410156 50.589844 57.375 50.566406 C 57.34375 50.542969 57.3125 50.519531 57.28125 50.5 C 57.238281 50.476562 57.195312 50.460938 57.152344 50.445312 C 57.121094 50.433594 57.09375 50.417969 57.0625 50.40625 C 56.984375 50.382812 56.90625 50.367188 56.828125 50.355469 L 52.800781 49.914062 C 52.132812 49.839844 51.535156 50.316406 51.460938 50.984375 C 51.386719 51.648438 51.867188 52.246094 52.53125 52.320312 L 53.648438 52.441406 L 41.117188 62.457031 C 40.59375 62.875 40.511719 63.636719 40.929688 64.160156 Z M 40.929688 64.160156 "/>
</g>
</svg>
