<?xml version="1.0" encoding="UTF-8"?>
<svg xmlns="http://www.w3.org/2000/svg" xmlns:xlink="http://www.w3.org/1999/xlink" width="75pt" height="74.999997pt" viewBox="0 0 75 74.999997" version="1.2">
<defs>
<clipPath id="clip1">
  <path d="M 1.128906 1.402344 L 54 1.402344 L 54 54 L 1.128906 54 Z M 1.128906 1.402344 "/>
</clipPath>
<clipPath id="clip2">
  <path d="M 50 51 L 73.878906 51 L 73.878906 73.402344 L 50 73.402344 Z M 50 51 "/>
</clipPath>
</defs>
<g id="surface1">
<g clip-path="url(#clip1)" clip-rule="nonzero">
<path style=" stroke:none;fill-rule:nonzero;fill:rgb(15.689087%,18.03894%,23.529053%);fill-opacity:1;" d="M 27.140625 1.40625 C 12.835938 1.40625 1.195312 13.011719 1.195312 27.28125 C 1.195312 41.550781 12.835938 53.160156 27.140625 53.160156 C 41.449219 53.160156 53.089844 41.550781 53.089844 27.28125 C 53.089844 13.011719 41.449219 1.40625 27.140625 1.40625 Z M 27.140625 49.09375 C 15.082031 49.09375 5.273438 39.308594 5.273438 27.28125 C 5.273438 15.257812 15.082031 5.472656 27.140625 5.472656 C 39.203125 5.472656 49.011719 15.257812 49.011719 27.28125 C 49.011719 39.308594 39.203125 49.09375 27.140625 49.09375 Z M 27.140625 49.09375 "/>
</g>
<path style=" stroke:none;fill-rule:nonzero;fill:rgb(15.689087%,18.03894%,23.529053%);fill-opacity:1;" d="M 53.136719 49.582031 L 48.558594 45.011719 C 47.421875 46.378906 46.15625 47.632812 44.777344 48.757812 L 49.429688 53.394531 C 49.726562 52.550781 50.210938 51.761719 50.882812 51.089844 L 51.015625 50.957031 C 51.628906 50.347656 52.351562 49.882812 53.136719 49.582031 Z M 53.136719 49.582031 "/>
<g clip-path="url(#clip2)" clip-rule="nonzero">
<path style=" stroke:none;fill-rule:nonzero;fill:rgb(15.689087%,18.03894%,23.529053%);fill-opacity:1;" d="M 58.363281 52.296875 C 57.5625 51.503906 56.5 51.0625 55.359375 51.0625 C 54.222656 51.0625 53.15625 51.503906 52.359375 52.296875 L 52.226562 52.425781 C 51.429688 53.222656 50.992188 54.285156 50.992188 55.421875 C 50.992188 56.554688 51.429688 57.621094 52.226562 58.414062 L 66.027344 72.179688 C 66.828125 72.972656 67.890625 73.410156 69.03125 73.410156 C 70.167969 73.410156 71.234375 72.972656 72.03125 72.179688 L 72.164062 72.046875 C 73.820312 70.398438 73.820312 67.710938 72.164062 66.058594 Z M 58.363281 52.296875 "/>
</g>
</g>
</svg>
